<?xml version="1.0" encoding="UTF-8"?>
<!DOCTYPE svg PUBLIC "-//W3C//DTD SVG 1.1//EN" "http://www.w3.org/Graphics/SVG/1.1/DTD/svg11.dtd">
<svg xmlns="http://www.w3.org/2000/svg" version="1.1" width="512px" height="512px" style="shape-rendering:geometricPrecision; text-rendering:geometricPrecision; image-rendering:optimizeQuality; fill-rule:evenodd; clip-rule:evenodd" xmlns:xlink="http://www.w3.org/1999/xlink">
<g><path style="opacity:1" fill="#362863" d="M 107.5,86.5 C 142.996,87.4984 178.663,87.8317 214.5,87.5C 217.196,68.94 225.529,53.44 239.5,41C 244.018,38.2958 248.018,35.1291 251.5,31.5C 285.783,16.8225 316.117,22.4892 342.5,48.5C 346.817,55.1251 350.65,62.1251 354,69.5C 356.43,75.285 357.93,81.285 358.5,87.5C 373.676,87.8294 388.676,87.4961 403.5,86.5C 429.428,87.3242 455.428,87.8242 481.5,88C 482.667,89.1667 483.833,90.3333 485,91.5C 485.667,143.833 485.667,196.167 485,248.5C 483.857,254.428 482.024,260.095 479.5,265.5C 466.574,285.809 447.908,296.643 423.5,298C 324.146,313.537 224.813,329.204 125.5,345C 116.021,347.508 108.521,352.675 103,360.5C 99.2562,372.278 102.756,381.111 113.5,387C 118.59,389.272 123.923,390.606 129.5,391C 231.166,391.5 332.833,391.667 434.5,391.5C 450.837,391.333 467.17,391.5 483.5,392C 485.333,392.5 486.5,393.667 487,395.5C 487.817,398.964 487.483,402.298 486,405.5C 485.25,406.126 484.416,406.626 483.5,407C 462.503,407.5 441.503,407.667 420.5,407.5C 322.833,407.667 225.166,407.5 127.5,407C 112.465,406.233 100.298,400.067 91,388.5C 79.507,363.656 86.007,345.156 110.5,333C 115.341,330.909 120.341,329.409 125.5,328.5C 113.1,254.934 100.1,181.601 86.5,108.5C 83.4019,91.1746 80.2353,73.8412 77,56.5C 74.5916,49.0908 69.7583,43.9241 62.5,41C 50.2077,39.7968 37.8744,39.1301 25.5,39C 20.7012,35.9289 19.5345,31.7622 22,26.5C 22.9025,25.2986 24.0692,24.4652 25.5,24C 38.5,23.3333 51.5,23.3333 64.5,24C 79.15,27.3173 88.65,36.1507 93,50.5C 95.8161,62.7306 97.9828,75.064 99.5,87.5C 102.279,87.7214 104.946,87.388 107.5,86.5 Z"/></g>
<g><path style="opacity:1" fill="#257f5e" d="M 251.5,31.5 C 248.018,35.1291 244.018,38.2958 239.5,41C 225.529,53.44 217.196,68.94 214.5,87.5C 178.663,87.8317 142.996,87.4984 107.5,86.5C 148.706,50.9171 196.706,32.5838 251.5,31.5 Z"/></g>
<g><path style="opacity:1" fill="#f07c85" d="M 324.5,137.5 C 330.834,116.504 327.501,97.1711 314.5,79.5C 316.932,76.9741 318.598,73.9741 319.5,70.5C 318.098,64.5882 314.431,62.0882 308.5,63C 306.004,64.6665 303.671,66.4998 301.5,68.5C 301.489,66.9826 300.823,65.8159 299.5,65C 284.773,55.5213 268.773,52.188 251.5,55C 248.354,56.6572 245.354,58.4906 242.5,60.5C 263.069,38.354 287.069,33.854 314.5,47C 340.728,65.0214 348.562,89.188 338,119.5C 334.696,126.463 330.196,132.463 324.5,137.5 Z"/></g>
<g><path style="opacity:1" fill="#267f5f" d="M 342.5,48.5 C 364.985,57.8989 385.318,70.5656 403.5,86.5C 388.676,87.4961 373.676,87.8294 358.5,87.5C 357.93,81.285 356.43,75.285 354,69.5C 350.65,62.1251 346.817,55.1251 342.5,48.5 Z"/></g>
<g><path style="opacity:1" fill="#392964" d="M 301.5,68.5 C 303.671,66.4998 306.004,64.6665 308.5,63C 314.431,62.0882 318.098,64.5882 319.5,70.5C 318.598,73.9741 316.932,76.9741 314.5,79.5C 308.633,84.6038 302.966,89.9371 297.5,95.5C 304.152,102.652 310.985,109.652 318,116.5C 320.686,123.458 318.353,127.791 311,129.5C 309.373,129.375 307.873,128.875 306.5,128C 299.667,121.167 292.833,114.333 286,107.5C 279.5,114 273,120.5 266.5,127C 260.701,130.925 256.201,129.759 253,123.5C 252.333,121.5 252.333,119.5 253,117.5C 259.65,110.016 266.483,102.683 273.5,95.5C 267.181,88.6811 260.681,82.0144 254,75.5C 251.385,68.7298 253.552,64.3965 260.5,62.5C 262.299,62.577 263.966,63.077 265.5,64C 272.333,70.8333 279.167,77.6667 286,84.5C 291.37,79.298 296.536,73.9647 301.5,68.5 Z"/></g>
<g><path style="opacity:1" fill="#f9afb1" d="M 235.5,72.5 C 232.669,108.673 248.335,132.84 282.5,145C 291.766,146.386 301.1,146.886 310.5,146.5C 289.305,156.24 269.305,154.073 250.5,140C 230.101,120.833 225.101,98.3327 235.5,72.5 Z"/></g>
<g><path style="opacity:1" fill="#fd9494" d="M 301.5,68.5 C 296.536,73.9647 291.37,79.298 286,84.5C 279.167,77.6667 272.333,70.8333 265.5,64C 263.966,63.077 262.299,62.577 260.5,62.5C 253.552,64.3965 251.385,68.7298 254,75.5C 260.681,82.0144 267.181,88.6811 273.5,95.5C 266.483,102.683 259.65,110.016 253,117.5C 252.333,119.5 252.333,121.5 253,123.5C 256.201,129.759 260.701,130.925 266.5,127C 273,120.5 279.5,114 286,107.5C 292.833,114.333 299.667,121.167 306.5,128C 307.873,128.875 309.373,129.375 311,129.5C 318.353,127.791 320.686,123.458 318,116.5C 310.985,109.652 304.152,102.652 297.5,95.5C 302.966,89.9371 308.633,84.6038 314.5,79.5C 327.501,97.1711 330.834,116.504 324.5,137.5C 320.521,141.494 315.855,144.494 310.5,146.5C 301.1,146.886 291.766,146.386 282.5,145C 248.335,132.84 232.669,108.673 235.5,72.5C 237.317,68.1994 239.65,64.1994 242.5,60.5C 245.354,58.4906 248.354,56.6572 251.5,55C 268.773,52.188 284.773,55.5213 299.5,65C 300.823,65.8159 301.489,66.9826 301.5,68.5 Z"/></g>
<g><path style="opacity:1" fill="#a59ec4" d="M 132.5,104.5 C 122.652,104.173 112.986,104.506 103.5,105.5C 102.957,105.44 102.624,105.107 102.5,104.5C 112.659,103.177 122.659,103.177 132.5,104.5 Z"/></g>
<g><path style="opacity:1" fill="#e2def8" d="M 132.5,104.5 C 145.166,176.495 157.833,248.495 170.5,320.5C 162.417,322.685 154.084,324.352 145.5,325.5C 144.006,325.291 142.839,324.624 142,323.5C 128.841,250.878 116.008,178.212 103.5,105.5C 112.986,104.506 122.652,104.173 132.5,104.5 Z"/></g>
<g><path style="opacity:1" fill="#c8c0f4" d="M 132.5,104.5 C 159.833,104.5 187.167,104.5 214.5,104.5C 215.216,110.646 216.55,116.646 218.5,122.5C 219.127,126.42 220.793,129.753 223.5,132.5C 228.013,138.83 233.013,144.83 238.5,150.5C 239.585,152.587 241.251,153.92 243.5,154.5C 266.949,169.312 291.615,171.479 317.5,161C 340.811,149.228 354.478,130.394 358.5,104.5C 384.833,104.5 411.167,104.5 437.5,104.5C 437.5,105.167 437.833,105.5 438.5,105.5C 438.667,154.168 438.5,202.834 438,251.5C 435.167,265.145 427.667,275.145 415.5,281.5C 334.23,295.875 252.564,308.875 170.5,320.5C 157.833,248.495 145.166,176.495 132.5,104.5 Z"/></g>
<g><path style="opacity:1" fill="#443971" d="M 437.5,104.5 C 448.167,104.5 458.833,104.5 469.5,104.5C 469.832,150.003 469.499,195.336 468.5,240.5C 468.5,195.5 468.5,150.5 468.5,105.5C 458.5,105.5 448.5,105.5 438.5,105.5C 437.833,105.5 437.5,105.167 437.5,104.5 Z"/></g>
<g><path style="opacity:1" fill="#9e9ecc" d="M 438.5,105.5 C 448.5,105.5 458.5,105.5 468.5,105.5C 468.5,150.5 468.5,195.5 468.5,240.5C 465.827,259.354 455.493,271.854 437.5,278C 430.18,279.308 422.846,280.474 415.5,281.5C 427.667,275.145 435.167,265.145 438,251.5C 438.5,202.834 438.667,154.168 438.5,105.5 Z"/></g>
<g><path style="opacity:1" fill="#247f5e" d="M 86.5,108.5 C 100.1,181.601 113.1,254.934 125.5,328.5C 120.341,329.409 115.341,330.909 110.5,333C 86.007,345.156 79.507,363.656 91,388.5C 100.298,400.067 112.465,406.233 127.5,407C 225.166,407.5 322.833,407.667 420.5,407.5C 418.833,409.5 417.167,411.5 415.5,413.5C 390.903,412.758 375.903,424.424 370.5,448.5C 320.911,477.216 267.911,486.216 211.5,475.5C 221.875,459.613 222.042,443.613 212,427.5C 197.1,412.188 180.267,409.688 161.5,420C 151.242,428.016 145.909,438.516 145.5,451.5C 79.0792,412.057 41.2458,353.724 32,276.5C 27.3844,221.289 40.7178,170.956 72,125.5C 76.3233,119.348 81.1567,113.681 86.5,108.5 Z"/></g>
<g><path style="opacity:1" fill="#7e74ab" d="M 218.5,122.5 C 220.674,125.515 222.341,128.849 223.5,132.5C 220.793,129.753 219.127,126.42 218.5,122.5 Z"/></g>
<g><path style="opacity:1" fill="#8075ad" d="M 238.5,150.5 C 240.749,151.08 242.415,152.413 243.5,154.5C 241.251,153.92 239.585,152.587 238.5,150.5 Z"/></g>
<g><path style="opacity:1" fill="#257f5e" d="M 479.5,265.5 C 477.431,312.268 462.431,354.268 434.5,391.5C 332.833,391.667 231.166,391.5 129.5,391C 123.923,390.606 118.59,389.272 113.5,387C 102.756,381.111 99.2562,372.278 103,360.5C 108.521,352.675 116.021,347.508 125.5,345C 224.813,329.204 324.146,313.537 423.5,298C 447.908,296.643 466.574,285.809 479.5,265.5 Z"/></g>
<g><path style="opacity:1" fill="#372964" d="M 211.5,475.5 C 195.157,490.97 177.491,492.47 158.5,480C 149.966,472.431 145.633,462.931 145.5,451.5C 145.909,438.516 151.242,428.016 161.5,420C 180.267,409.688 197.1,412.188 212,427.5C 222.042,443.613 221.875,459.613 211.5,475.5 Z"/></g>
<g><path style="opacity:1" fill="#372964" d="M 415.5,413.5 C 440.946,421.473 450.446,438.473 444,464.5C 432.167,487.003 414.334,493.503 390.5,484C 377.448,475.725 370.781,463.892 370.5,448.5C 375.903,424.424 390.903,412.758 415.5,413.5 Z"/></g>
<g><path style="opacity:1" fill="#9e9ecc" d="M 194.5,465.5 C 193.838,450.181 186.172,440.515 171.5,436.5C 170.075,436.623 168.742,436.957 167.5,437.5C 178.465,427.73 188.965,428.397 199,439.5C 203.241,446.268 203.575,453.268 200,460.5C 198.574,462.766 196.74,464.432 194.5,465.5 Z"/></g>
<g><path style="opacity:1" fill="#9e9ecc" d="M 420.5,465.5 C 419.648,449.318 411.314,439.652 395.5,436.5C 409.562,427.06 420.395,430.06 428,445.5C 429.881,454.046 427.381,460.712 420.5,465.5 Z"/></g>
<g><path style="opacity:1" fill="#c5bdf1" d="M 194.5,465.5 C 191.491,469.939 187.158,471.939 181.5,471.5C 177.515,471.511 174.182,470.178 171.5,467.5C 169.833,465.167 167.833,463.167 165.5,461.5C 164.442,460.4 163.608,459.066 163,457.5C 162.333,452.833 162.333,448.167 163,443.5C 163.792,440.894 165.292,438.894 167.5,437.5C 168.742,436.957 170.075,436.623 171.5,436.5C 186.172,440.515 193.838,450.181 194.5,465.5 Z"/></g>
<g><path style="opacity:1" fill="#c8c0f4" d="M 395.5,436.5 C 411.314,439.652 419.648,449.318 420.5,465.5C 417.419,469.09 413.419,470.757 408.5,470.5C 404.5,470.497 400.833,469.497 397.5,467.5C 395.833,465.167 393.833,463.167 391.5,461.5C 386.691,452.022 388.025,443.689 395.5,436.5 Z"/></g>
<g><path style="opacity:1" fill="#8277af" d="M 165.5,461.5 C 167.833,463.167 169.833,465.167 171.5,467.5C 168.5,466.5 166.5,464.5 165.5,461.5 Z"/></g>
<g><path style="opacity:1" fill="#7469a1" d="M 391.5,461.5 C 393.833,463.167 395.833,465.167 397.5,467.5C 394.5,466.5 392.5,464.5 391.5,461.5 Z"/></g>
</svg>
